<svg xmlns="http://www.w3.org/2000/svg" xmlns:xlink="http://www.w3.org/1999/xlink" width="23" height="37" viewBox="0 0 23 37">
  <defs>
    <polygon id="group-3-copy-a" points="0 0 23 0 23 37 0 37"/>
  </defs>
  <g fill="none" fill-rule="evenodd" transform="matrix(-1 0 0 1 23 0)">
    <mask id="group-3-copy-b" fill="#fff">
      <use xlink:href="#group-3-copy-a"/>
    </mask>
    <path fill="#F7F1E3" d="M22.9608829,17.856033 C22.9576346,17.7210805 22.9478896,17.5852343 22.937554,17.4411956 C22.9289902,17.3220322 22.9202788,17.1986981 22.9152586,17.0737256 C22.9120103,16.9938861 22.9090572,16.9146425 22.9062519,16.8358457 C22.8993122,16.6469718 22.8926679,16.4685247 22.8821847,16.2938014 C22.8734732,16.1485711 22.8731779,16.0124269 22.8728826,15.8809004 C22.8725873,15.7492249 22.8724397,15.6249971 22.8631376,15.514622 C22.8495537,15.3527088 22.8284395,15.1858801 22.8080636,15.0245627 C22.7962515,14.9302747 22.7844394,14.8368804 22.7739561,14.7443799 C22.7575668,14.5991495 22.7318754,14.4533234 22.7047076,14.2988579 C22.6866941,14.1965264 22.66809,14.0907689 22.6521436,13.9836708 C22.6149355,13.7338746 22.5666534,13.4857169 22.5201432,13.2456028 L22.5173378,13.2316011 C22.4693511,12.9840392 22.4195925,12.7281359 22.3603843,12.490554 C22.3339546,12.3849454 22.3115116,12.2827629 22.2899545,12.1841552 C22.25629,12.0305834 22.2245449,11.885651 22.184236,11.7599336 C22.1322627,11.5968288 22.0640477,11.4344687 21.9919938,11.2625756 C21.9648259,11.1977805 21.9378057,11.1334323 21.9116713,11.069233 C21.8438993,10.9022554 21.7576708,10.73781 21.6664222,10.5635336 C21.6399926,10.5130381 21.6137106,10.4628405 21.5878716,10.412643 C21.4825961,10.2078309 21.3634413,10.0033168 21.223763,9.78718429 C21.0824605,9.56866849 20.953856,9.37338954 20.8113723,9.196283 C20.6557477,9.00264255 20.5024854,8.81540713 20.3385922,8.64947216 C20.2829276,8.59301852 20.2278536,8.53507533 20.1724843,8.4769832 C20.0524436,8.35067004 19.9390473,8.23135773 19.8221073,8.13334587 C19.7581742,8.07957341 19.6576235,8.02326872 19.5511668,7.96353809 C19.4420523,7.90231792 19.3183203,7.83290526 19.1944407,7.7453202 C19.0921182,7.67292846 19.0001314,7.59830241 18.9109498,7.52635753 C18.8028689,7.43877246 18.7005465,7.35610289 18.6014723,7.29577644 C18.3825051,7.16246243 18.1474439,7.03480869 17.9461949,6.92756167 C17.8060736,6.85278666 17.6532543,6.78203342 17.4915759,6.70725842 C17.4156831,6.67210523 17.3391996,6.63665413 17.2624208,6.60016035 C17.2061656,6.57334859 17.1502057,6.54728161 17.0948364,6.52136358 C16.8987552,6.42990571 16.6960296,6.33531979 16.5020156,6.22285938 C16.2942699,6.10265334 16.1110344,5.96889247 15.949356,5.85092075 C15.8973827,5.81308639 15.8461476,5.77554993 15.7949125,5.73935406 C15.5475963,5.56418393 15.3367499,5.38424726 15.1247224,5.19984197 C14.9380909,5.03763085 14.7814326,4.86648248 14.6430831,4.71544293 C14.6026266,4.67120353 14.5624654,4.62726205 14.5221566,4.58436324 C14.4625054,4.5207598 14.3926662,4.45641159 14.3188404,4.38848847 C14.1909742,4.27051675 14.0458328,4.13675588 13.9179666,3.97201255 L13.8562483,3.89261996 C13.7059391,3.69957532 13.5506097,3.49982775 13.4118173,3.29054711 C13.3060988,3.13131507 13.2185414,2.9761048 13.1337895,2.82595897 C13.0846215,2.73867182 13.038259,2.6564491 12.9916011,2.57943978 C12.914527,2.45238186 12.8474932,2.32919674 12.7826742,2.21003338 C12.7205129,2.09563656 12.6617476,1.98764477 12.6018011,1.89067559 C12.4585792,1.65934972 12.3290888,1.45289921 12.194283,1.26968555 C12.0717322,1.10330372 11.9187653,0.952711027 11.7315432,0.772923314 C11.5624822,0.610563242 11.4046427,0.489761391 11.2349912,0.392345348 C11.093541,0.311314266 10.9188693,0.243689062 10.6507342,0.166381835 C10.5899017,0.148954194 10.5281834,0.129590149 10.4654315,0.109928195 C10.3154176,0.06285867 10.1730815,0.0181724117 10.0338462,0 C9.89121483,0.0052133968 9.7016303,0.0451331209 9.46952213,0.118716493 C9.23711867,0.192299865 9.02346694,0.278842252 8.81660719,0.383110188 C8.72181492,0.43077553 8.60871387,0.511806612 8.48882085,0.597604228 C8.39904874,0.66195244 8.30617594,0.728534964 8.20208163,0.795713306 C8.08425573,0.871828899 7.96849695,0.930963714 7.85642946,0.988162125 C7.73712705,1.04893544 7.62446895,1.10643176 7.5408982,1.17063101 C7.45053548,1.24004367 7.35249488,1.33582121 7.24869587,1.43696111 C7.16335331,1.52022651 7.07520536,1.60632203 6.97627885,1.69346024 C6.84103007,1.81262359 6.70400948,1.94966145 6.5590157,2.09459388 C6.51368669,2.14002491 6.46806238,2.18575385 6.42169981,2.23163174 C6.20169907,2.44940277 6.03529582,2.62159382 5.88173826,2.79020997 C5.79639569,2.88420006 5.7092813,2.97014663 5.62511995,3.05326307 C5.52073033,3.15663729 5.42195148,3.25405333 5.33956194,3.35370368 C5.24860861,3.46392979 5.15868885,3.58890236 5.06345363,3.72132264 C5.00232591,3.80637548 4.93898341,3.89440741 4.87180198,3.98363097 C4.83828509,4.02787037 4.80462054,4.07210976 4.77080835,4.11664707 C4.647667,4.27885819 4.5203914,4.44658061 4.40374671,4.61519676 C4.33065922,4.72095423 4.2600818,4.84250086 4.18522249,4.97104833 C4.12542363,5.07382672 4.0637053,5.18018002 3.99475205,5.28876762 C3.84710055,5.52158303 3.71303298,5.74173733 3.58487148,5.96174267 C3.508388,6.09312027 3.42644141,6.20811291 3.34730021,6.31923274 C3.27096438,6.42647976 3.1987628,6.52776861 3.14811833,6.62265243 C3.10913833,6.69549103 3.07370197,6.80139747 3.03634614,6.91370893 C2.99057418,7.05074679 2.9387485,7.20625497 2.86093616,7.36504014 C2.78563389,7.51816505 2.69660003,7.65118114 2.61804943,7.7684081 C2.55042505,7.86925009 2.4866396,7.96443182 2.44972672,8.04635662 C2.41104203,8.1326011 2.37811574,8.24550838 2.34326999,8.36496964 C2.30458529,8.49783679 2.2607328,8.64842948 2.19768561,8.8018523 C2.10481281,9.02781581 2.01031585,9.26927056 1.90873161,9.54036719 C1.85395291,9.68664021 1.79061041,9.81623036 1.72948269,9.94164979 C1.67263686,10.0582809 1.61903936,10.1683581 1.58493187,10.2683063 C1.56499891,10.3271432 1.54477066,10.3859802 1.52439475,10.4452639 C1.45928044,10.6350316 1.3918037,10.8313532 1.3327431,11.023802 C1.29819265,11.1359645 1.27087712,11.2636183 1.24193743,11.3985708 C1.21432659,11.5274161 1.18582985,11.6605812 1.14744046,11.7997044 C1.11540009,11.9157397 1.09074229,12.0453299 1.06460797,12.1823677 C1.04024547,12.3098725 1.01514472,12.441697 0.981332523,12.5794796 C0.946782071,12.7200924 0.905291999,12.8505763 0.86513079,12.9768894 C0.823640718,13.1072243 0.784513069,13.2304094 0.759412314,13.3459979 C0.736083376,13.453096 0.722056483,13.5773238 0.707143682,13.7087014 C0.691640274,13.8454413 0.67554626,13.9867988 0.647197171,14.1372426 C0.619881643,14.2811323 0.584888237,14.4148932 0.551076043,14.5443344 C0.516673243,14.675712 0.48404226,14.7999398 0.46529052,14.9155282 C0.445209915,15.0393092 0.432807189,15.173368 0.419666205,15.3154703 C0.408001736,15.4423792 0.395894313,15.5736079 0.377142572,15.7101989 C0.357209619,15.8551313 0.329303485,15.9906796 0.30228326,16.1217593 C0.274820081,16.2550733 0.248833416,16.3810886 0.235692432,16.4981666 C0.221665539,16.6228412 0.204095011,16.7448347 0.187115088,16.8628064 C0.16570562,17.0126543 0.145329712,17.1541608 0.133074638,17.2925393 C0.122148426,17.4163202 0.119638351,17.5499321 0.116832972,17.6914386 C0.114470548,17.8207309 0.111812821,17.9543428 0.10280608,18.0939128 C0.0942422923,18.2243967 0.0813966116,18.3513057 0.0686985823,18.4740439 C0.0537857805,18.6206149 0.0396112362,18.7591423 0.0340004791,18.8932011 C0.0303091915,18.9804882 0.0258796464,19.0680733 0.0215977528,19.1562542 C0.0130339656,19.3338076 0.00402722394,19.5174681 0.00033593636,19.6950215 C-0.00202648769,19.8110568 0.00845676903,19.940498 0.0196782833,20.0776848 C0.030456843,20.2105519 0.0415307057,20.3478877 0.0433025238,20.4944586 C0.0447790388,20.6176438 0.0425642662,20.7375519 0.0404971452,20.8534382 C0.0376917666,21.0084996 0.0350340396,21.1549215 0.0412354027,21.2941937 C0.0466985083,21.4191663 0.0641213857,21.553523 0.0824301721,21.6956253 C0.0986718374,21.8219384 0.115504109,21.9525712 0.125839714,22.089907 C0.145920318,22.3519174 0.174860013,22.6212266 0.202913799,22.8817475 L0.210001071,22.9469895 C0.237168947,23.2003605 0.26300796,23.4397299 0.296229549,23.6786525 C0.33373303,23.9476637 0.378619087,24.2169729 0.421585675,24.4678118 C0.454364308,24.6599627 0.49378726,24.8497303 0.535424984,25.0505206 C0.549304225,25.11755 0.563183466,25.1844304 0.576767404,25.2513108 C0.608512478,25.4075638 0.625049446,25.559646 0.639666945,25.6938537 C0.653693838,25.8226991 0.666982473,25.9443947 0.690606713,26.0449388 C0.725747771,26.1935951 0.769600267,26.3437409 0.815962839,26.502675 C0.84549314,26.6039639 0.876057001,26.7088276 0.904701393,26.8151809 C0.949882753,26.9821586 1.00229904,27.1477956 1.05766835,27.3232637 C1.08468858,27.4086144 1.11156115,27.4938162 1.13754781,27.5788691 C1.17372243,27.6971387 1.20531985,27.813174 1.23573606,27.9253365 C1.27634023,28.0744397 1.31472962,28.2153503 1.35946802,28.3455363 C1.43919983,28.5785007 1.52838134,28.8233814 1.63218035,29.094627 C1.66879792,29.1905535 1.70379133,29.2867779 1.73878473,29.3828533 C1.79755003,29.5441707 1.85291935,29.6965509 1.91375176,29.8395469 C1.96720161,29.9652642 2.03394009,30.0932159 2.10436986,30.2287642 C2.15826265,30.3322874 2.21407492,30.4392365 2.26693416,30.551399 C2.35094787,30.7293992 2.44263945,30.9021861 2.53964649,31.0852508 C2.56961974,31.1418534 2.599593,31.198307 2.6291233,31.2546117 C2.70855981,31.4059492 2.79744601,31.5537118 2.89150002,31.7101137 C2.93682903,31.7853355 2.98186274,31.8602595 3.02556758,31.9351834 C3.15579621,32.157721 3.29458862,32.3817481 3.43825353,32.6008597 C3.55534118,32.7797537 3.68128791,32.9489657 3.81476487,33.1281576 L3.89242956,33.2327234 C3.94794652,33.3076474 4.00169167,33.3830182 4.05514151,33.4577932 C4.15746401,33.6012361 4.25417574,33.7366355 4.35310225,33.8531176 C4.40920982,33.9191044 4.46384087,33.9856869 4.51817663,34.0516736 C4.6336401,34.1921374 4.74260691,34.3247066 4.85172137,34.4343369 C4.8839094,34.4668089 4.91594978,34.499132 4.9478425,34.5314551 C5.10376249,34.6893465 5.25097104,34.8384496 5.39626012,34.9591025 C5.546717,35.0840751 5.71695918,35.1935564 5.89724167,35.3094428 C5.93371159,35.3328286 5.97003386,35.3562144 6.00576552,35.3794513 C6.13717536,35.464802 6.29501482,35.533172 6.46215632,35.6057127 C6.52579412,35.6334182 6.58913661,35.6609747 6.65129789,35.689276 C6.7161169,35.7187689 6.78005,35.7494535 6.8433925,35.7798402 C7.0102387,35.8598286 7.15434656,35.9287943 7.28339398,35.9608195 L7.40948836,35.9919509 L7.51476388,36.0686623 C7.65547577,36.1709939 7.82837568,36.2596216 8.01116824,36.3534628 C8.05103414,36.3738695 8.0907524,36.3942762 8.13047065,36.4148319 C8.32522298,36.5162697 8.53976062,36.6078765 8.78633863,36.6950147 C8.99674202,36.7694918 9.22220587,36.8311589 9.47587115,36.8837397 C9.70236855,36.9306603 9.94466467,36.9762402 10.18135,36.9918804 C10.3910152,37.0057332 10.6223851,37.0018604 10.888896,36.980262 C11.1310445,36.9606001 11.3622668,36.9233615 11.5762138,36.8698869 C11.8093555,36.8114969 12.0343764,36.7519152 12.2245515,36.6640323 L12.3569949,36.6028121 L12.502727,36.6028121 C12.7416271,36.6028121 12.9470103,36.6287301 13.1283264,36.6516691 C13.1884205,36.6592657 13.2477764,36.6668624 13.3071323,36.6731185 C13.362797,36.6789277 13.4181663,36.6854817 13.4739785,36.6920356 C13.6443684,36.7119955 13.8051609,36.7309127 13.9671346,36.7274867 C14.1581956,36.723316 14.3665319,36.697249 14.5865326,36.6504774 C14.7852715,36.6080255 15.0008427,36.5468053 15.2271925,36.4687533 C15.3738104,36.4181089 15.523972,36.3489941 15.6829927,36.2758576 C15.7585903,36.2410023 15.8337449,36.206445 15.9088995,36.1735261 C16.0172757,36.1260097 16.1333298,36.0546606 16.2563235,35.9789919 C16.3493439,35.9216445 16.4456127,35.8625097 16.5505929,35.8056092 C16.6605933,35.7460276 16.7663118,35.6967237 16.8687819,35.6489094 C16.9963528,35.5894767 17.1168364,35.533321 17.2100045,35.4721008 C17.3975219,35.3490646 17.5792809,35.2065155 17.7716708,35.0557738 L17.8040065,35.0304516 C17.8515503,34.9932131 17.8992417,34.9564214 17.9469332,34.9194807 C18.1037391,34.7985299 18.2516859,34.6842821 18.3819145,34.564076 C18.4984115,34.4563821 18.6123985,34.3297711 18.7328821,34.1957123 C18.7857414,34.1370243 18.8386006,34.0783364 18.8921981,34.0203932 C18.9892051,33.9156784 19.0832592,33.7917485 19.1827763,33.6606688 C19.2382932,33.5873834 19.2957297,33.5115657 19.3568574,33.4351522 C19.3886025,33.3952325 19.4206428,33.3556106 19.4526832,33.3158399 C19.5830595,33.1536288 19.7063485,33.0005038 19.8160536,32.8421655 C19.9225103,32.6881469 20.0221751,32.5213182 20.1277459,32.3446585 C20.1562426,32.2968442 20.1847394,32.248881 20.2136791,32.2010667 C20.288686,32.0766899 20.3712232,31.9639316 20.4440154,31.8644302 C20.5207942,31.7595664 20.5932911,31.6605119 20.6406872,31.5705436 C20.6997478,31.45853 20.7531977,31.3287909 20.8098958,31.1914552 C20.8527148,31.0876341 20.8970102,30.9802381 20.9478023,30.870012 C20.9711313,30.8196655 20.9946079,30.76917 21.0180844,30.7185256 C21.1059371,30.5300985 21.1887696,30.3520983 21.2620047,30.170821 C21.3579782,29.933537 21.4496698,29.6913375 21.5347171,29.4507764 C21.5688246,29.354552 21.5948112,29.2361334 21.6222744,29.110714 C21.6495899,28.9860394 21.6805967,28.8445329 21.7250398,28.7006431 C21.7730266,28.5457308 21.8350402,28.4057138 21.8896713,28.2822308 C21.9388392,28.171111 21.9853494,28.0659493 22.009269,27.9771726 C22.0417523,27.8565197 22.0670007,27.7235036 22.093578,27.5827419 C22.116021,27.4643233 22.1392023,27.3420319 22.1687326,27.2155698 C22.1992965,27.0852349 22.2348805,26.9619008 22.2692833,26.8427374 C22.3081156,26.7085297 22.3447332,26.5816207 22.368948,26.4618616 C22.3876998,26.3686162 22.3953777,26.2530278 22.4034985,26.1305874 C22.4125052,25.995337 22.4226932,25.8422121 22.4501564,25.6826822 C22.4785055,25.5168962 22.5015391,25.3485779 22.5259016,25.1704287 C22.5378614,25.0837374 22.5496735,24.9967481 22.5622239,24.9097589 C22.5983985,24.6599627 22.6317677,24.4062937 22.6641034,24.1340054 C22.6816739,23.9869876 22.7082512,23.8505456 22.7337949,23.7187211 C22.758748,23.5906205 22.7823723,23.4696697 22.7928555,23.3592947 C22.8166274,23.1123286 22.8414329,22.8464454 22.8615135,22.5766893 C22.8730303,22.4226707 22.8795269,22.2667156 22.8866142,22.1018234 C22.8908961,21.9983002 22.8953257,21.894777 22.9009364,21.7909559 C22.9162922,21.5091346 22.927809,21.2518907 22.9365204,21.0046268 C22.9453795,20.753341 22.9498091,20.493416 22.954091,20.2419813 L22.9545339,20.2171059 C22.9563057,20.1089652 22.9595541,20.0008244 22.9628024,19.8925347 C22.9675272,19.7318132 22.9721044,19.5801778 22.9721044,19.4285424 C22.9721044,19.2794393 22.9797823,19.1392734 22.9873125,19.0037251 C22.9943998,18.8747307 23.0010441,18.7528862 23,18.6411706 C22.9983864,18.5133679 22.9898226,18.382735 22.9808159,18.2445055 C22.9725474,18.1189372 22.9641313,17.9890491 22.9608829,17.856033" mask="url(#group-3-copy-b)"/>
  </g>
</svg>
